<svg id="Layer_1" data-name="Layer 1" xmlns="http://www.w3.org/2000/svg" viewBox="0 0 500 401.89"><defs><style>.cls-1{fill:#0ebee9;}.cls-2{fill:#5d5d5d;}.cls-2,.cls-3{stroke:#5d5d5d;stroke-width:4px;}.cls-3{fill:#b3b3b3;}.cls-4{fill:#a43022;}.cls-5{fill:#f05123;}.cls-6{fill:#010101;}.cls-7{fill:#fff;}</style></defs><g id="SVGRepo_iconCarrier" data-name="SVGRepo iconCarrier"><path class="cls-1" d="M298,401.89H0V283.59c131.22,0,99.68-222.71,217.07-237.48,3.94-.5,6.07,8.48,3.27,13.72-9.46,17.7-22.67,52.17-22.67,106.65,0,58.22,44.21,117.11,100.34,117.11Zm-51.4-296.83c4.34-8.19-3.49-23-10.66-23C236,82.11,242.28,113.26,246.61,105.06ZM215.86,9.31c-4-19.42-22.48-5.82-27.69,16.5C188.17,25.81,219.84,28.74,215.86,9.31Z"/></g><g id="SVGRepo_iconCarrier-2" data-name="SVGRepo iconCarrier"><rect class="cls-2" x="331.67" y="109.44" width="134.67" height="56.11" rx="5.61"/><path class="cls-3" d="M466.34,53.33H331.67a16.84,16.84,0,0,0-16.83,16.84v44.89a5.61,5.61,0,0,0,5.61,5.61H477.56a5.61,5.61,0,0,0,5.61-5.61V70.17A16.83,16.83,0,0,0,466.34,53.33Z"/><path class="cls-3" d="M477.56,154.33H320.45a5.61,5.61,0,0,0-5.61,5.61v44.89a16.84,16.84,0,0,0,16.83,16.84H466.34a16.83,16.83,0,0,0,16.83-16.84V159.94A5.61,5.61,0,0,0,477.56,154.33Z"/><path class="cls-3" d="M427.06,143.11H371a5.61,5.61,0,0,1,0-11.22h56.11a5.61,5.61,0,0,1,0,11.22Z"/><circle class="cls-2" cx="354.12" cy="87" r="16.83"/><path class="cls-2" d="M415.84,92.61h39.28a5.61,5.61,0,1,0,0-11.22H415.84a5.61,5.61,0,1,0,0,11.22Z"/><path class="cls-2" d="M393.4,81.39h-5.62a5.61,5.61,0,1,0,0,11.22h5.62a5.61,5.61,0,1,0,0-11.22Z"/><circle class="cls-2" cx="354.12" cy="188" r="16.83"/><path class="cls-2" d="M455.12,182.39H415.84a5.61,5.61,0,1,0,0,11.22h39.28a5.61,5.61,0,0,0,0-11.22Z"/><path class="cls-2" d="M393.4,182.39h-5.62a5.61,5.61,0,1,0,0,11.22h5.62a5.61,5.61,0,0,0,0-11.22Z"/></g><rect class="cls-1" x="298.01" y="283.26" width="201.99" height="118.63"/><g id="Layer-1"><path class="cls-4" d="M117.88,73.84C107,88.06,98.93,102.22,94.32,114l-.63-.48c-4.27,12.06-4.65,21.53.13,25.18A7.81,7.81,0,0,0,96.4,140l1,2.34s.43,1.59,3.69,1.85c2.88.24,15.19-.22,21.65-.48,3.1.13,5.08.13,5,0s-4.67-2.17-11.15-2.69A98.33,98.33,0,0,1,106,138.88a57.72,57.72,0,0,0,12.14-6.67l0,0c10.18-7.55,21.7-19.1,32.55-33.32C163.1,82.6,172,66.29,176,53.79L154.71,37.56c-11,7.11-24.4,20-36.83,36.28"/><path class="cls-4" d="M179.81,33.58l-4.72-1-.38-.32c-3.92-3-10.63-1.67-18.75,3l20.82,15.89a35.81,35.81,0,0,0,1.36-11,86.78,86.78,0,0,1,6.78,11.34c2.6,5.86,5.81,9.71,6.09,9.74s-.48-1.79-1.62-4.62c-1.9-6-5.54-17.34-6.7-19.94-1.31-3-2.88-3.05-2.88-3.05"/><path class="cls-5" d="M187.18,23.89l-16.43,4.79-1.31-.51L167,20.59A2.44,2.44,0,0,0,165.3,19a2.29,2.29,0,0,0-2.19.51l-5.68,5.3c-.66-.14-1.32-.25-2-.36l-3.91-7a2.44,2.44,0,0,0-1.93-1.25,2.26,2.26,0,0,0-2,.92l-4.49,6.35c-.66,0-1.32,0-2,0l-5.19-6.21a2.43,2.43,0,0,0-2.13-.87A2.19,2.19,0,0,0,132,17.71l-3.12,7.14-1.92.41-6.28-5.13a2.4,2.4,0,0,0-2.24-.45,2.23,2.23,0,0,0-1.49,1.64L115.32,29l-1.8.79-7.11-3.86a2.35,2.35,0,0,0-2.27,0A2.17,2.17,0,0,0,103,27.81L103,35.68c-.54.36-1.07.74-1.6,1.12l-7.67-2.43a2.28,2.28,0,0,0-2.21.43,2.21,2.21,0,0,0-.72,2.1l1.5,7.81c-.45.46-.89.93-1.33,1.41l-8-.93a2.25,2.25,0,0,0-2.06.86,2.22,2.22,0,0,0-.28,2.21l3,7.44c-.34.54-.68,1.1-1,1.65L74.67,58a2.24,2.24,0,0,0-1.84,1.25A2.3,2.3,0,0,0,73,61.46l4.37,6.75c-.23.62-.45,1.23-.67,1.85l-7.57,2.13a2.21,2.21,0,0,0-1.55,1.59A2.35,2.35,0,0,0,68.19,76l5.59,5.84c-.1.65-.2,1.3-.28,2l-7,3.58a2.17,2.17,0,0,0-1.19,1.86,2.38,2.38,0,0,0,1,2L73,96c0,.66.07,1.31.11,2L67,102.8a2.24,2.24,0,0,0-.79,2.08,2.46,2.46,0,0,0,1.4,1.83L75,110.08c.15.64.32,1.28.49,1.92l-4.94,6a2.25,2.25,0,0,0-.36,2.21,2.47,2.47,0,0,0,1.72,1.54l7.81,1.91c.28.6.56,1.21.86,1.82L77,132.35a2.29,2.29,0,0,0,.09,2.25,2.46,2.46,0,0,0,2,1.19l8,.38.21.29,3,18.43s0,2.5,4.64,2.42c4.06-.07,22-2.68,31.37-4.09,4.42-.26,7.27-.56,7.26-.84,0-.43-5.93-2.78-15.08-2.62-7.78-.42-19.1-1.91-19.2-3.67a13,13,0,0,1,.14-5.63h0s62.5-33.06,75.5-98.08a13.54,13.54,0,0,1,8.56-7.21c1.51-.63,7.37,8.48,10.9,15,3.58,7.91,8,12,8.34,11.87s-.67-2.67-2.25-6.57c-2.64-8.64-7.72-25-9.31-28.56-1.81-4-3.93-3-3.93-3"/><path class="cls-6" d="M165.91,82.67c0-.32,0-.5,0-.5L151.56,97.7C144,70.33,166.83,70.49,169.32,70.55L173,73.37Z"/><path class="cls-5" d="M97.07,131.75s-15.89,9.69-23.45,7.61c0,0-.51-26-29-17.08l17,13.82A26.84,26.84,0,0,1,42.27,130s-5,24.4,26.09,15.12c0,0,8.69,5.51,32.87-5.75Z"/><path class="cls-6" d="M132.48,70.1s-1.69-9.36,7.79-10.2c0,0,10.51,1.68,11.17,8.53,0,0,.21,10.53-7.79,10.2,0,0-7.43,1.24-11.17-8.53"/><path class="cls-7" d="M139.06,65.78c2.18,1.66,3,4.29,1.75,5.87s-3.94,1.51-6.12-.15-3-4.29-1.75-5.87,3.95-1.51,6.12.15"/><path class="cls-6" d="M113.58,91.7s2.8-11.7,13.27-7.49c0,0,12,5.19,5.16,15.31,0,0-11.8,10.54-18.43-7.82"/><path class="cls-7" d="M120.67,90.16c2.24,1.71,3,4.42,1.81,6.06s-4.07,1.56-6.32-.15-3-4.43-1.8-6.06,4.07-1.56,6.31.15"/><path class="cls-5" d="M167.75,43.55s5.88,7.38,4.86,24.58l-1.69,3.76s-26.67-4-16.63,26.73c0,0,.82-6.58,13.36-16.31a25.63,25.63,0,0,1-4.59,23.27s21.27-.91,15.08-31.73c0,0,6.57-22.57-6.79-35Z"/></g></svg>