<svg id="Layer_1" data-name="Layer 1" xmlns="http://www.w3.org/2000/svg" viewBox="0 0 458.98 405.23"><defs><style>.cls-1{fill:#5d5d5d;}.cls-1,.cls-2{stroke:#5d5d5d;stroke-width:4px;}.cls-2{fill:#b3b3b3;}.cls-3{fill:#0ebee9;}.cls-4{fill:#a43022;}.cls-5{fill:#f05123;}.cls-6{fill:#010101;}.cls-7{fill:#fff;}</style></defs><g id="SVGRepo_iconCarrier" data-name="SVGRepo iconCarrier"><rect class="cls-1" x="308.89" y="173.61" width="131.64" height="54.85" rx="5.48"/><path class="cls-2" d="M440.52,118.77H308.89a16.44,16.44,0,0,0-16.45,16.45V179.1a5.48,5.48,0,0,0,5.48,5.48H451.49A5.48,5.48,0,0,0,457,179.1V135.22A16.45,16.45,0,0,0,440.52,118.77Z"/><path class="cls-2" d="M451.49,217.49H297.92a5.48,5.48,0,0,0-5.48,5.49v43.88a16.45,16.45,0,0,0,16.45,16.45H440.52A16.46,16.46,0,0,0,457,266.86V223A5.49,5.49,0,0,0,451.49,217.49Z"/><path class="cls-2" d="M402.13,206.52H347.28a5.49,5.49,0,0,1,0-11h54.85a5.49,5.49,0,1,1,0,11Z"/><circle class="cls-1" cx="330.83" cy="151.68" r="16.45"/><path class="cls-1" d="M391.16,157.16h38.4a5.49,5.49,0,0,0,0-11h-38.4a5.49,5.49,0,0,0,0,11Z"/><path class="cls-1" d="M369.22,146.19h-5.48a5.49,5.49,0,1,0,0,11h5.48a5.49,5.49,0,1,0,0-11Z"/><circle class="cls-1" cx="330.83" cy="250.4" r="16.45"/><path class="cls-1" d="M429.56,244.92h-38.4a5.49,5.49,0,0,0,0,11h38.4a5.49,5.49,0,0,0,0-11Z"/><path class="cls-1" d="M369.22,244.92h-5.48a5.49,5.49,0,1,0,0,11h5.48a5.49,5.49,0,1,0,0-11Z"/></g><path class="cls-3" d="M207.05,180.39c-8.1-40,0-85,46.74-126.07a1.52,1.52,0,0,0-1.44-2.59C213.33,63.31,16.34,130,0,300.11a.92.92,0,0,0,0,.16H0a105,105,0,0,0,105,105l320.75-.1a17.1,17.1,0,0,0,17.1-17.1h0A87.83,87.83,0,0,0,355,300.19h0C283.6,300.19,221.22,250.39,207.05,180.39Z"/><g id="Layer-1"><path class="cls-4" d="M124,50.81c-15,9.73-27.41,20.33-35.72,29.89L87.8,80c-8.09,9.91-11.64,18.7-8.36,23.75a7.57,7.57,0,0,0,2,2l.17,2.55s-.13,1.64,2.86,3c2.63,1.19,14.37,4.91,20.55,6.83,2.87,1.18,4.74,1.84,4.74,1.66s-3.66-3.62-9.59-6.29A100,100,0,0,1,90.85,108a57.76,57.76,0,0,0,13.68-2.19l0,0c12.13-3.69,26.87-10.68,41.88-20.41,17.18-11.13,31.06-23.49,39-33.93L170.84,29.06C158.08,32,141.13,39.67,124,50.81"/><path class="cls-4" d="M195.82,33.77l-4.12-2.51c-.08-.14-.16-.29-.25-.42-2.68-4.14-9.45-5.16-18.65-3.52L187,49.3a35.78,35.78,0,0,0,5-9.95,86.68,86.68,0,0,1,2.56,13c.47,6.39,2.2,11.1,2.45,11.23s.16-1.85,0-4.9c.23-6.26.63-18.2.42-21-.25-3.22-1.69-3.84-1.69-3.84"/><path class="cls-5" d="M206,27.12l-17.09-1-1.07-.92.23-8a2.42,2.42,0,0,0-1-2.06,2.31,2.31,0,0,0-2.24-.26L177.7,18c-.57-.34-1.16-.67-1.74-1L174.65,9a2.46,2.46,0,0,0-1.4-1.84,2.27,2.27,0,0,0-2.23.19l-6.36,4.47c-.63-.22-1.25-.44-1.88-.64L160,3.62a2.48,2.48,0,0,0-1.72-1.54,2.21,2.21,0,0,0-2.13.63L150.8,8.39q-1-.15-2-.27l-4.18-6.94a2.39,2.39,0,0,0-2-1.18,2.2,2.2,0,0,0-2,1.05L136.66,7.7l-2,.13-5.39-6A2.35,2.35,0,0,0,127.16,1a2.2,2.2,0,0,0-1.7,1.42l-2.71,7.38c-.63.17-1.26.34-1.89.53l-6.4-4.88a2.28,2.28,0,0,0-2.23-.34,2.22,2.22,0,0,0-1.38,1.74l-1.22,7.85c-.58.29-1.15.58-1.72.89l-7.19-3.56a2.22,2.22,0,0,0-3.24,2.1l.31,8-1.51,1.21L88.61,21.3a2.23,2.23,0,0,0-2.15.55,2.31,2.31,0,0,0-.6,2.18l1.84,7.83c-.42.5-.84,1-1.25,1.51l-7.85-.54a2.19,2.19,0,0,0-2,1,2.36,2.36,0,0,0-.17,2.26l3.3,7.38c-.32.58-.62,1.16-.92,1.75l-7.75,1a2.18,2.18,0,0,0-1.75,1.36,2.37,2.37,0,0,0,.27,2.27l4.63,6.65c-.19.63-.37,1.25-.55,1.89l-7.36,2.55a2.21,2.21,0,0,0-1.45,1.69,2.45,2.45,0,0,0,.7,2.2l5.79,5.65c-.07.65-.13,1.31-.18,2l-6.68,4a2.26,2.26,0,0,0-1.08,2,2.46,2.46,0,0,0,1.11,2l6.7,4.43c.06.67.13,1.34.2,2l-5.71,5.25A2.3,2.3,0,0,0,65,94.26,2.45,2.45,0,0,0,66.49,96l7.37,3c0,.11.07.23.11.34l-3.35,18.38s-.81,2.36,3.55,3.84c3.85,1.3,21.58,4.87,30.91,6.71,4.25,1.25,7,1.92,7.12,1.66.12-.42-4.65-4.62-13.32-7.55-7.18-3-17.33-8.23-16.84-9.92a13,13,0,0,1,2-5.25h0s70-10.08,104.13-66.91a13.55,13.55,0,0,1,10.49-3.91c1.64-.08,4.09,10.47,5.22,17.77.71,8.66,3.45,14,3.86,14,.25,0,.27-2.73.09-6.94.43-9,1.17-26.18.85-30-.36-4.36-2.68-4.14-2.68-4.14"/><path class="cls-6" d="M166.19,75.31c.09-.31.13-.49.13-.49l-18.7,9.8c2.09-28.33,23.54-20.48,25.87-19.58l2.52,3.9Z"/><path class="cls-5" d="M84.84,98.32s-18.22,3.77-24.64-.73c0,0,8.28-24.66-21.52-25.85L50.05,90.5a26.89,26.89,0,0,1-16.2-12.32s-13,21.27,19.47,23c0,0,6.33,8.13,32.88,5.67Z"/><path class="cls-6" d="M139,52.21s1.57-9.39,10.77-7c0,0,9.33,5.12,7.65,11.8,0,0-3.36,10-10.77,7,0,0-7.42-1.33-7.65-11.79"/><path class="cls-7" d="M146.61,50.35c1.48,2.3,1.34,5-.33,6.12s-4.23.1-5.72-2.2-1.34-5,.33-6.12,4.23-.09,5.72,2.2"/><path class="cls-6" d="M113.88,66.17s6.58-10.07,15-2.58c0,0,9.54,8.93-.3,16.16,0,0-14.66,5.94-14.72-13.58"/><path class="cls-7" d="M121.08,67.12c1.53,2.36,1.38,5.19-.34,6.3s-4.36.1-5.9-2.26-1.38-5.2.34-6.31,4.36-.1,5.9,2.27"/><path class="cls-5" d="M181.11,39.09s3,8.93-3.71,24.78l-2.86,3S150.8,54.05,149.88,86.4c0,0,3-5.91,18.08-10.85a25.66,25.66,0,0,1-12.17,20.37s20.34,6.3,24.89-24.8c0,0,13.79-19,5.4-35.26Z"/></g></svg>